<svg xmlns="http://www.w3.org/2000/svg" width="26" height="24" viewBox="0 0 26 24">
    <path fill="#FFF" d="M24.74 13.5H13.617l7.408 7.408c.145.144.34.225.545.225.179 0 .357-.063.495-.193 1.814-1.71 3.062-4.013 3.428-6.603.063-.444-.305-.837-.753-.837zm-3.183 5.818L17.239 15h6.604c-.381 1.601-1.17 3.094-2.286 4.318zM10.5 13.5V2.377c0-.414-.337-.76-.738-.76-.032 0-.065.003-.099.007-5.585.79-9.855 5.67-9.656 11.518C.21 19.103 5.305 24 11.257 24h.136c2.362-.03 4.545-.792 6.34-2.065.37-.262.395-.807.073-1.129L10.5 13.5zm.873 9h-.117c-5.112 0-9.577-4.309-9.75-9.409C1.346 8.398 4.516 4.324 9 3.273v10.848l.44.44 6.648 6.648c-1.433.826-3.045 1.27-4.715 1.29zm12.625-12.037c-.386-5.6-4.86-10.075-10.46-10.461C13.52 0 13.505 0 13.487 0c-.405 0-.738.35-.738.76v10.49h10.49c.428 0 .788-.36.758-.787zM14.25 9.75V1.59c4.184.646 7.513 3.976 8.16 8.16h-8.16z"/>
</svg>
