<svg xmlns="http://www.w3.org/2000/svg" width="24" height="18" viewBox="0 0 24 18">
    <path fill="#8c8383" d="M21.75 0h-6.185c-.31 0-.563.253-.563.562v.375c0 .31.253.563.563.563h6.186c.412 0 .75.337.75.75v13.496c0 .413-.338.75-.75.75h-6.186c-.31 0-.563.253-.563.562v.375c0 .31.253.563.563.563h6.186c1.241 0 2.249-1.008 2.249-2.25V2.25C24 1.008 22.992 0 21.75 0zM8.677.914l.332.333c.22.22.22.576 0 .796L2.822 8.201H15.94c.31 0 .563.253.563.562v.47c0 .308-.253.561-.563.561H2.822l6.182 6.158c.22.22.22.577 0 .797l-.333.333c-.22.22-.576.22-.797 0L.165 9.396c-.22-.22-.22-.576 0-.797L7.88.914c.22-.22.576-.22.797 0z"/>
</svg>
