<svg xmlns="http://www.w3.org/2000/svg" width="21" height="24" viewBox="0 0 21 24">
    <path fill="#FFF" d="M14.7 13.5c-1.345 0-1.992.75-4.2.75s-2.85-.75-4.2-.75c-3.478 0-6.3 2.822-6.3 6.3v1.95C0 22.992 1.008 24 2.25 24h16.5c1.242 0 2.25-1.008 2.25-2.25V19.8c0-3.478-2.822-6.3-6.3-6.3zm4.8 8.25c0 .413-.337.75-.75.75H2.25c-.413 0-.75-.337-.75-.75V19.8c0-2.648 2.152-4.8 4.8-4.8.919 0 1.833.75 4.2.75 2.363 0 3.281-.75 4.2-.75 2.648 0 4.8 2.152 4.8 4.8v1.95zm-9-9.75c3.314 0 6-2.686 6-6s-2.686-6-6-6-6 2.686-6 6 2.686 6 6 6zm0-10.5C12.98 1.5 15 3.52 15 6s-2.02 4.5-4.5 4.5S6 8.48 6 6s2.02-4.5 4.5-4.5z"/>
</svg>
